<svg width="25" height="24" viewBox="0 0 25 24" fill="none" xmlns="http://www.w3.org/2000/svg">
<path fill-rule="evenodd" clip-rule="evenodd" d="M6.40204 2.28148C6.54079 2.10428 6.75855 2 6.9898 2H18.0102C18.2415 2 18.4592 2.10428 18.598 2.28148L21.3531 5.8C21.4484 5.92181 21.5 6.06996 21.5 6.22222V18.537C21.5 19.1903 21.2291 19.8167 20.7468 20.2786C20.2646 20.7405 19.6106 21 18.9286 21H6.07143C5.38944 21 4.73539 20.7405 4.25315 20.2786C3.77092 19.8167 3.5 19.1903 3.5 18.537V6.22222C3.5 6.06996 3.55156 5.92181 3.64694 5.8L6.40204 2.28148ZM7.35714 3.40741L4.96939 6.45679V18.537C4.96939 18.817 5.0855 19.0855 5.29217 19.2834C5.49884 19.4814 5.77915 19.5926 6.07143 19.5926H18.9286C19.2209 19.5926 19.5012 19.4814 19.7078 19.2834C19.9145 19.0855 20.0306 18.817 20.0306 18.537V6.45679L17.6429 3.40741H7.35714Z" fill="#262626"/>
<path fill-rule="evenodd" clip-rule="evenodd" d="M3.5 6.92587C3.5 6.53723 3.82893 6.22217 4.23469 6.22217H20.7653C21.1711 6.22217 21.5 6.53723 21.5 6.92587C21.5 7.31452 21.1711 7.62958 20.7653 7.62958H4.23469C3.82893 7.62958 3.5 7.31452 3.5 6.92587Z" fill="#262626"/>
<path fill-rule="evenodd" clip-rule="evenodd" d="M8.09163 8.6853C8.49739 8.6853 8.82632 9.00036 8.82632 9.38901C8.82632 10.3222 9.21335 11.2171 9.90226 11.877C10.5912 12.5368 11.5255 12.9075 12.4998 12.9075C13.4741 12.9075 14.4084 12.5368 15.0973 11.877C15.7862 11.2171 16.1733 10.3222 16.1733 9.38901C16.1733 9.00036 16.5022 8.6853 16.908 8.6853C17.3137 8.6853 17.6426 9.00036 17.6426 9.38901C17.6426 10.6954 17.1008 11.9484 16.1363 12.8722C15.1719 13.796 13.8638 14.3149 12.4998 14.3149C11.1358 14.3149 9.82771 13.796 8.86324 12.8722C7.89877 11.9484 7.35693 10.6954 7.35693 9.38901C7.35693 9.00036 7.68587 8.6853 8.09163 8.6853Z" fill="#262626"/>
</svg>
