<svg width="25" height="24" viewBox="0 0 25 24" fill="none" xmlns="http://www.w3.org/2000/svg">
<path d="M5.06995 7.94852V21.4555C5.07127 21.8133 5.21406 22.1561 5.46716 22.409C5.72027 22.6619 6.06314 22.8045 6.42095 22.8055H18.5769C18.9349 22.8045 19.2779 22.6618 19.5311 22.4087C19.7842 22.1555 19.9269 21.8125 19.9279 21.4545V7.94852H5.06995ZM9.12095 20.1045H7.77195V10.6495H9.12095V20.1045ZM11.8209 20.1045H10.4729V10.6495H11.8209V20.1045ZM14.5209 20.1045H13.1749V10.6495H14.5209V20.1045ZM17.2209 20.1045H15.8759V10.6495H17.2269L17.2209 20.1045ZM20.2659 3.89552H15.8759V2.20752C15.8752 1.9391 15.7682 1.6819 15.5784 1.49209C15.3886 1.30229 15.1314 1.19531 14.8629 1.19452H10.1359C9.86718 1.19478 9.60947 1.30153 9.41923 1.49139C9.229 1.68125 9.12174 1.93875 9.12095 2.20752V3.89552H4.73295C4.4647 3.89657 4.20775 4.00367 4.01817 4.19345C3.82858 4.38322 3.72174 4.64027 3.72095 4.90852V6.59752H21.2789V4.90852C21.2782 4.6401 21.1712 4.3829 20.9814 4.19309C20.7916 4.00329 20.5344 3.89631 20.2659 3.89552ZM14.5259 3.89552H10.4729V2.56652H14.5209V3.89552H14.5259Z" fill="#F29C46"/>
</svg>
