<svg width="22" height="22" viewBox="0 0 22 22" fill="none" xmlns="http://www.w3.org/2000/svg">
<path d="M0.692383 17.0136V21.3076H4.98638L17.6514 8.64262L13.3574 4.34862L0.692383 17.0136ZM20.9724 5.32162C21.0787 5.21571 21.163 5.08986 21.2205 4.95129C21.2781 4.81273 21.3077 4.66416 21.3077 4.51412C21.3077 4.36408 21.2781 4.21552 21.2205 4.07695C21.163 3.93838 21.0787 3.81253 20.9724 3.70662L18.2924 1.02762C18.1865 0.921342 18.0606 0.837017 17.9221 0.779479C17.7835 0.72194 17.6349 0.692322 17.4849 0.692322C17.3348 0.692322 17.1863 0.72194 17.0477 0.779479C16.9091 0.837017 16.7833 0.921342 16.6774 1.02762L14.5774 3.12762L18.8714 7.42162L20.9714 5.32162H20.9724Z" fill="#F29C46"/>
</svg>
