<svg width="18" height="17" viewBox="0 0 18 17" fill="none" xmlns="http://www.w3.org/2000/svg">
<path d="M11.3952 13.6905C11.2344 13.6919 11.0805 13.7585 10.9674 13.8758C10.8542 13.9931 10.7908 14.1516 10.7912 14.3167C10.7915 14.5291 10.71 14.7329 10.5644 14.8838C10.4188 15.0346 10.2209 15.1202 10.014 15.1219H1.98527C1.77838 15.1202 1.58053 15.0346 1.43493 14.8838C1.28932 14.7329 1.20778 14.5291 1.20811 14.3167V2.68326C1.20778 2.47092 1.28932 2.26708 1.43493 2.11623C1.58053 1.96539 1.77838 1.87978 1.98527 1.87812H10.014C10.2209 1.87978 10.4188 1.96539 10.5644 2.11623C10.71 2.26708 10.7915 2.47092 10.7912 2.68326C10.7912 2.84775 10.8549 3.00551 10.9682 3.12182C11.0815 3.23814 11.2352 3.30349 11.3955 3.30349C11.5558 3.30349 11.7095 3.23814 11.8229 3.12182C11.9362 3.00551 11.9999 2.84775 11.9999 2.68326C12.0025 2.14017 11.7948 1.61825 11.4225 1.23228C11.0502 0.846312 10.5438 0.627894 10.0146 0.625061H1.98527C1.45609 0.627894 0.949665 0.846312 0.577376 1.23228C0.205087 1.61825 -0.0025873 2.14017 2.43374e-05 2.68326V14.3167C-0.0025873 14.8598 0.205087 15.3817 0.577376 15.7677C0.949665 16.1537 1.45609 16.3721 1.98527 16.3749H10.014C10.5432 16.3721 11.0496 16.1537 11.4219 15.7677C11.7942 15.3817 12.0019 14.8598 11.9993 14.3167C11.9996 14.1516 11.9363 13.9931 11.8231 13.8758C11.7099 13.7585 11.5561 13.6919 11.3952 13.6905Z" fill="#262626"/>
<path d="M14.112 3.82082C14.0567 3.75842 13.9906 3.70892 13.9176 3.67528C13.8445 3.64164 13.7661 3.62455 13.6869 3.62502C13.6076 3.62388 13.529 3.64067 13.4559 3.67436C13.3828 3.70804 13.3167 3.75789 13.2618 3.82082C13.1491 3.94705 13.0859 4.11695 13.0859 4.29394C13.0859 4.47093 13.1491 4.64084 13.2618 4.76706L16.0455 7.83633H5.10701C4.94596 7.83633 4.7915 7.90674 4.67762 8.03206C4.56373 8.15738 4.49976 8.32735 4.49976 8.50458C4.49976 8.68182 4.56373 8.85179 4.67762 8.97711C4.7915 9.10243 4.94596 9.17283 5.10701 9.17283H16.0631L13.3474 12.2374C13.2365 12.3647 13.1746 12.5342 13.1746 12.7106C13.1746 12.8869 13.2365 13.0564 13.3474 13.1837L13.3517 13.1883C13.4644 13.3069 13.6141 13.3736 13.7701 13.3748C13.8494 13.3764 13.9282 13.3598 14.0013 13.3261C14.0745 13.2924 14.1405 13.2423 14.1952 13.179L17.7221 9.23966C17.8096 9.15068 17.8795 9.04274 17.9272 8.92262C17.975 8.8025 17.9997 8.67279 17.9997 8.54167C17.9997 8.41055 17.975 8.28085 17.9272 8.16073C17.8795 8.04061 17.8096 7.93266 17.7221 7.84369L14.112 3.82082Z" fill="#262626"/>
</svg>
