<svg width="71" height="71" viewBox="0 0 71 71" fill="none" xmlns="http://www.w3.org/2000/svg">
<g clip-path="url(#clip0_2101_1232)">
<path d="M65.3563 41.7109C65.2368 41.9046 65.0658 42.0612 64.8625 42.1629C64.6592 42.2646 64.4317 42.3074 64.2055 42.2865C45.4598 42.2763 26.7143 42.2731 7.96903 42.277C7.81717 42.2902 7.66425 42.2836 7.5141 42.2572C7.30344 42.2246 7.11364 42.1112 6.98466 41.941C6.85567 41.7708 6.79757 41.557 6.82258 41.3447C6.82403 41.1411 6.90318 40.9458 7.04374 40.799C7.18431 40.6521 7.37563 40.5648 7.57836 40.5551C7.63395 40.5412 7.69154 40.5373 7.7485 40.5434C8.84383 40.8027 9.40902 40.1501 10.0122 39.3672C13.5172 34.7933 17.061 30.2538 20.5814 25.6938C20.9102 25.1846 21.3922 24.7939 21.9576 24.5784C22.5229 24.3629 23.1421 24.3339 23.725 24.4956C23.8432 24.4907 23.959 24.4599 24.0642 24.4055C24.1693 24.3511 24.2614 24.2744 24.334 24.1806C26.2202 21.8787 28.0881 19.562 29.9603 17.2491C31.3166 15.5738 32.6731 13.8986 34.0299 12.2233C34.262 11.893 34.5653 11.6194 34.9174 11.4228C35.2694 11.2263 35.6611 11.1117 36.0633 11.0878C36.4655 11.0639 36.8679 11.1312 37.2406 11.2846C37.6133 11.4381 37.9468 11.6738 38.2162 11.9743C40.493 14.2301 42.7545 16.5006 45.0007 18.7857C45.33 19.1204 45.5849 19.1871 45.9726 18.9322C46.267 18.7573 46.5724 18.6017 46.8869 18.4664C47.202 18.2834 47.551 18.1667 47.9126 18.1234C48.2742 18.08 48.6407 18.1108 48.99 18.214C49.3394 18.3171 49.6641 18.4905 49.9445 18.7235C50.2249 18.9565 50.4552 19.2443 50.6212 19.5694C53.0338 23.5908 55.4416 27.6154 57.8445 31.6432C59.5175 34.441 61.1977 37.2351 62.8553 40.0424C62.9292 40.2151 63.0583 40.3583 63.2222 40.4494C63.3861 40.5405 63.5756 40.5743 63.7608 40.5456C64.0454 40.4717 64.3447 40.477 64.6265 40.561C64.9083 40.645 65.1618 40.8045 65.36 41.0224L65.3563 41.7109ZM61.1072 40.539C60.9531 40.2643 60.8501 40.0695 60.7377 39.8798C58.2238 35.6748 55.7091 31.4703 53.1938 27.2663C51.8526 25.0251 50.5104 22.7847 49.1673 20.5449C48.7913 19.9195 48.3553 19.7137 47.7996 19.9737C46.77 20.4549 45.5885 20.8159 45.5688 22.2881C45.5652 22.3262 45.5548 22.3635 45.5381 22.3979C45.4709 22.6095 45.3272 22.7882 45.1354 22.899C44.9436 23.0098 44.7174 23.0448 44.5012 22.9971C44.2852 22.9447 44.0982 22.8098 43.9799 22.6212C43.8617 22.4325 43.8215 22.205 43.8681 21.9871C43.9108 21.666 43.9948 21.3519 44.1179 21.0525C44.1972 20.8919 44.2165 20.708 44.1721 20.5344C44.1278 20.3607 44.0227 20.2088 43.8762 20.1062C41.6687 17.9149 39.4788 15.7066 37.2823 13.5043C36.3856 12.6049 35.9489 12.6254 35.1646 13.5944L28.2838 22.0903C27.4236 23.1531 26.5655 24.2143 25.6659 25.3305C26.5422 25.7114 27.3615 26.0512 28.1662 26.4255C28.2931 26.5026 28.4426 26.5338 28.5897 26.5138C28.7368 26.4938 28.8726 26.4238 28.9745 26.3156C30.0699 25.3693 31.19 24.4465 32.3051 23.5207C32.5606 23.2603 32.8659 23.0542 33.2026 22.9149C33.5394 22.7755 33.9007 22.7058 34.265 22.7098C34.6293 22.7139 34.989 22.7916 35.3226 22.9384C35.6563 23.0851 35.9569 23.2979 36.2066 23.5639C37.4855 24.6801 38.7641 25.7968 40.0425 26.914C40.65 27.4435 41.2612 27.9672 41.9308 28.5451C42.2273 27.5197 42.4895 26.5903 42.7691 25.6638C42.951 25.0624 43.3854 24.7775 43.8645 24.9152C43.9887 24.949 44.1041 25.0094 44.2028 25.0922C44.3015 25.1751 44.3811 25.2784 44.4362 25.3951C44.4912 25.5118 44.5204 25.639 44.5216 25.7681C44.5229 25.8972 44.4963 26.025 44.4435 26.1428C44.1346 27.2414 43.7995 28.3349 43.5125 29.4386C43.4915 29.5463 43.4949 29.6574 43.5224 29.7637C43.55 29.8699 43.601 29.9686 43.6717 30.0524C47.5701 33.4756 51.4785 36.8875 55.3968 40.2878C55.5119 40.4109 55.6626 40.4947 55.8277 40.5273C57.5488 40.539 59.2758 40.5346 61.1064 40.5346L61.1072 40.539ZM52.8235 40.5156L52.9068 40.3823C52.7673 40.2936 52.6325 40.1978 52.503 40.0952C46.725 35.0596 40.9477 30.0231 35.1712 24.9855C34.368 24.2832 34.0861 24.2941 33.2551 24.9943C32.2642 25.83 31.2835 26.6789 30.2678 27.4845C30.1909 27.5245 30.1235 27.5804 30.0701 27.6487C30.0167 27.717 29.9785 27.796 29.9582 27.8804C29.9378 27.9647 29.9358 28.0525 29.9521 28.1377C29.9685 28.223 30.0029 28.3037 30.0531 28.3744C31.8772 32.2513 33.6864 36.1353 35.4808 40.0263C35.5328 40.1941 35.6414 40.3386 35.7879 40.435C35.9345 40.5313 36.1099 40.5735 36.284 40.5544C41.6358 40.5383 46.9869 40.5441 52.3387 40.5427C52.4993 40.539 52.6607 40.5192 52.8228 40.5104L52.8235 40.5156ZM18.3389 40.5024H33.7327C33.7185 40.4143 33.697 40.3276 33.6684 40.2431C31.8609 36.3569 30.0482 32.4732 28.2304 28.5919C28.1112 28.3829 27.9267 28.219 27.7054 28.1254C26.318 27.5094 24.9145 26.9162 23.5147 26.3229C22.7757 26.0095 22.4924 26.0908 21.9958 26.7316C18.5687 31.148 15.1422 35.565 11.7165 39.9824C11.5982 40.1354 11.4974 40.3002 11.3295 40.5412C12.9206 40.5412 14.3847 40.5302 15.8481 40.5493C15.9961 40.5651 16.1452 40.5329 16.2735 40.4573C16.4018 40.3818 16.5025 40.2669 16.5608 40.1296C17.4137 38.5542 18.2914 36.9927 19.1604 35.4261C19.6504 34.5428 20.1287 33.6529 20.6325 32.7784C20.6828 32.6696 20.7549 32.5723 20.8444 32.4928C20.9339 32.4133 21.0389 32.3532 21.1526 32.3163C21.2664 32.2794 21.3866 32.2665 21.5055 32.2783C21.6245 32.2902 21.7398 32.3266 21.8441 32.3853C21.9484 32.444 22.0394 32.5236 22.1115 32.6193C22.1837 32.715 22.2353 32.8245 22.2632 32.9412C22.2911 33.0578 22.2947 33.1789 22.2736 33.297C22.2526 33.4151 22.2075 33.5275 22.1411 33.6272C22.0236 33.8667 21.8885 34.0975 21.7592 34.3311C20.6325 36.3584 19.5058 38.3908 18.3389 40.498V40.5024Z" fill="#262626"/>
<path d="M12.6287 54.7866H11.6104V46.0684H12.6287V54.7866Z" fill="#262626"/>
<path d="M17.6657 54.7258C17.4313 54.8555 17.1222 54.9203 16.7383 54.9203C15.6513 54.9203 15.1078 54.3123 15.1078 53.0964V49.4122H14.041V48.5611H15.1078V47.0412L16.1018 46.719V48.5611H17.6657V49.4122H16.1018V52.9201C16.1018 53.3376 16.1726 53.6355 16.314 53.8138C16.4554 53.9922 16.6898 54.0813 17.0171 54.0813C17.2677 54.0813 17.4838 54.0124 17.6657 53.8746V54.7258Z" fill="#262626"/>
<path d="M23.4361 54.7866H22.4421V53.8138H22.4178C21.9854 54.5596 21.349 54.9325 20.5085 54.9325C19.8902 54.9325 19.4053 54.7683 19.0537 54.44C18.7062 54.1117 18.5325 53.676 18.5325 53.1329C18.5325 51.9697 19.2154 51.2928 20.5812 51.1023L22.4421 50.8409C22.4421 49.7831 22.0158 49.2541 21.1631 49.2541C20.4155 49.2541 19.7407 49.5095 19.1386 50.0202V48.9988C19.7488 48.6097 20.4519 48.4152 21.248 48.4152C22.7068 48.4152 23.4361 49.1893 23.4361 50.7376V54.7866ZM22.4421 51.6373L20.9449 51.844C20.4842 51.9089 20.1367 52.0244 19.9023 52.1906C19.668 52.3527 19.5508 52.6425 19.5508 53.06C19.5508 53.3639 19.6579 53.6132 19.872 53.8077C20.0902 53.9982 20.3792 54.0935 20.7388 54.0935C21.2318 54.0935 21.6379 53.9212 21.9572 53.5767C22.2804 53.2282 22.4421 52.7884 22.4421 52.2574V51.6373Z" fill="#262626"/>
<path d="M29.54 54.5008C29.0631 54.7886 28.4974 54.9325 27.8428 54.9325C26.9578 54.9325 26.2426 54.6447 25.697 54.0692C25.1556 53.4896 24.8848 52.7398 24.8848 51.8197C24.8848 50.7943 25.1778 49.9715 25.7637 49.3514C26.3497 48.7272 27.1316 48.4152 28.1095 48.4152C28.655 48.4152 29.1359 48.5165 29.5521 48.7191V49.7405C29.0914 49.4163 28.5984 49.2541 28.0731 49.2541C27.4387 49.2541 26.9174 49.4831 26.5093 49.9411C26.1052 50.3951 25.9031 50.9929 25.9031 51.7346C25.9031 52.4642 26.0931 53.0397 26.4729 53.4612C26.8568 53.8827 27.37 54.0935 28.0125 54.0935C28.554 54.0935 29.0631 53.9131 29.54 53.5524V54.5008Z" fill="#262626"/>
<path d="M33.6375 54.9325C32.7202 54.9325 31.9868 54.6427 31.4372 54.0631C30.8917 53.4794 30.6189 52.7073 30.6189 51.7468C30.6189 50.7011 30.9038 49.8844 31.4736 49.2967C32.0433 48.709 32.8131 48.4152 33.7829 48.4152C34.7083 48.4152 35.4296 48.7009 35.9469 49.2724C36.4681 49.8439 36.7288 50.6362 36.7288 51.6495C36.7288 52.6425 36.4479 53.4389 35.8863 54.0388C35.3286 54.6346 34.579 54.9325 33.6375 54.9325ZM33.7102 49.2541C33.0717 49.2541 32.5666 49.473 32.1949 49.9107C31.8231 50.3444 31.6372 50.9443 31.6372 51.7103C31.6372 52.4479 31.8251 53.0296 32.2009 53.4551C32.5767 53.8807 33.0798 54.0935 33.7102 54.0935C34.3527 54.0935 34.8457 53.8847 35.1892 53.4673C35.5367 53.0498 35.7105 52.456 35.7105 51.686C35.7105 50.9078 35.5367 50.3079 35.1892 49.8864C34.8457 49.4649 34.3527 49.2541 33.7102 49.2541Z" fill="#262626"/>
<path d="M39.3109 54.7866H38.3169V45.5699H39.3109V54.7866Z" fill="#262626"/>
<path d="M43.9176 54.9325C43.0003 54.9325 42.2669 54.6427 41.7173 54.0631C41.1718 53.4794 40.899 52.7073 40.899 51.7468C40.899 50.7011 41.1839 49.8844 41.7537 49.2967C42.3235 48.709 43.0933 48.4152 44.0631 48.4152C44.9885 48.4152 45.7098 48.7009 46.227 49.2724C46.7483 49.8439 47.0089 50.6362 47.0089 51.6495C47.0089 52.6425 46.7281 53.4389 46.1664 54.0388C45.6087 54.6346 44.8591 54.9325 43.9176 54.9325ZM43.9903 49.2541C43.3519 49.2541 42.8468 49.473 42.475 49.9107C42.1032 50.3444 41.9173 50.9443 41.9173 51.7103C41.9173 52.4479 42.1052 53.0296 42.4811 53.4551C42.8569 53.8807 43.36 54.0935 43.9903 54.0935C44.6328 54.0935 45.1258 53.8847 45.4693 53.4673C45.8168 53.0498 45.9906 52.456 45.9906 51.686C45.9906 50.9078 45.8168 50.3079 45.4693 49.8864C45.1258 49.4649 44.6328 49.2541 43.9903 49.2541Z" fill="#262626"/>
<path d="M57.4103 54.7866H56.4162V51.2118C56.4162 50.5227 56.3091 50.0242 56.095 49.7162C55.8848 49.4082 55.5292 49.2541 55.0281 49.2541C54.6038 49.2541 54.2422 49.4487 53.9432 49.8378C53.6482 50.2269 53.5007 50.693 53.5007 51.2361V54.7866H52.5066V51.0902C52.5066 49.8661 52.0358 49.2541 51.0943 49.2541C50.6579 49.2541 50.2982 49.4386 50.0154 49.8074C49.7325 50.1722 49.5911 50.6484 49.5911 51.2361V54.7866H48.597V48.5611H49.5911V49.546H49.6153C50.0558 48.7921 50.6983 48.4152 51.5428 48.4152C51.9671 48.4152 52.3369 48.5347 52.6521 48.7739C52.9673 49.0089 53.1835 49.319 53.3006 49.704C53.7613 48.8448 54.4483 48.4152 55.3615 48.4152C56.7274 48.4152 57.4103 49.2602 57.4103 50.9503V54.7866Z" fill="#262626"/>
<path d="M59.7985 46.9804C59.6207 46.9804 59.4691 46.9196 59.3439 46.798C59.2186 46.6764 59.156 46.5224 59.156 46.3359C59.156 46.1495 59.2186 45.9955 59.3439 45.8739C59.4691 45.7482 59.6207 45.6854 59.7985 45.6854C59.9803 45.6854 60.1339 45.7482 60.2591 45.8739C60.3884 45.9955 60.4531 46.1495 60.4531 46.3359C60.4531 46.5143 60.3884 46.6663 60.2591 46.7919C60.1339 46.9176 59.9803 46.9804 59.7985 46.9804ZM60.2834 54.7866H59.2893V48.5611H60.2834V54.7866Z" fill="#262626"/>
<path d="M24.7559 59.9134H24.328L23.8146 59.0509C23.7675 58.9708 23.7219 58.9028 23.6776 58.847C23.6334 58.7898 23.5878 58.7433 23.5407 58.7075C23.4951 58.6718 23.4452 58.646 23.391 58.6303C23.3382 58.6131 23.2783 58.6046 23.2113 58.6046H22.916V59.9134H22.5566V56.8365H23.4723C23.6063 56.8365 23.7297 56.8536 23.8424 56.888C23.9565 56.9209 24.0549 56.9717 24.1376 57.0403C24.2217 57.109 24.2873 57.1948 24.3344 57.2978C24.3815 57.3994 24.405 57.5188 24.405 57.6561C24.405 57.7634 24.3886 57.8621 24.3558 57.9523C24.3244 58.0409 24.2788 58.1203 24.2189 58.1904C24.1604 58.2605 24.0891 58.3206 24.005 58.3707C23.9222 58.4193 23.8288 58.4572 23.7247 58.4844V58.493C23.7761 58.5159 23.8203 58.5423 23.8573 58.5724C23.8959 58.601 23.9322 58.6353 23.9665 58.6754C24.0007 58.7154 24.0342 58.7612 24.067 58.8127C24.1012 58.8628 24.139 58.9214 24.1804 58.9886L24.7559 59.9134ZM22.916 57.1626V58.2784H23.4038C23.4937 58.2784 23.5764 58.2648 23.652 58.2376C23.729 58.2105 23.7953 58.1718 23.8509 58.1218C23.9065 58.0703 23.95 58.008 23.9814 57.9351C24.0128 57.8607 24.0285 57.7777 24.0285 57.6862C24.0285 57.5217 23.975 57.3936 23.868 57.3021C23.7625 57.2091 23.6092 57.1626 23.4081 57.1626H22.916Z" fill="#262626"/>
<path d="M26.8053 59.9134H25.1794V56.8365H26.7369V57.1626H25.5388V58.1861H26.647V58.5101H25.5388V59.5873H26.8053V59.9134Z" fill="#262626"/>
<path d="M27.2524 59.789V59.3641C27.3009 59.4071 27.3587 59.4457 27.4257 59.48C27.4942 59.5143 27.5655 59.5437 27.6397 59.568C27.7152 59.5909 27.7908 59.6088 27.8664 59.6216C27.942 59.6345 28.0119 59.6409 28.0761 59.6409C28.2971 59.6409 28.4619 59.6002 28.5703 59.5186C28.6801 59.4357 28.735 59.3169 28.735 59.1624C28.735 59.0795 28.7164 59.0072 28.6794 58.9457C28.6437 58.8842 28.5938 58.8284 28.5296 58.7784C28.4654 58.7269 28.3891 58.6782 28.3007 58.6324C28.2137 58.5852 28.1196 58.5359 28.0183 58.4844C27.9114 58.43 27.8115 58.375 27.7188 58.3192C27.6261 58.2634 27.5455 58.2019 27.4771 58.1346C27.4086 58.0674 27.3544 57.9916 27.3145 57.9072C27.276 57.8214 27.2567 57.7212 27.2567 57.6068C27.2567 57.4666 27.2874 57.345 27.3487 57.242C27.41 57.1376 27.4906 57.0518 27.5905 56.9845C27.6903 56.9173 27.8037 56.8672 27.9306 56.8343C28.059 56.8014 28.1895 56.785 28.3221 56.785C28.6245 56.785 28.8448 56.8215 28.9831 56.8944V57.2999C28.802 57.1741 28.5695 57.1111 28.2857 57.1111C28.2073 57.1111 28.1288 57.1197 28.0504 57.1369C27.972 57.1526 27.9021 57.1791 27.8408 57.2163C27.7794 57.2535 27.7295 57.3014 27.691 57.36C27.6525 57.4187 27.6332 57.4902 27.6332 57.5746C27.6332 57.6533 27.6475 57.7212 27.676 57.7784C27.706 57.8357 27.7495 57.8879 27.8065 57.9351C27.8636 57.9823 27.9327 58.0281 28.014 58.0724C28.0968 58.1168 28.1916 58.1654 28.2986 58.2183C28.4084 58.2727 28.5125 58.3299 28.6109 58.39C28.7093 58.4501 28.7956 58.5166 28.8698 58.5895C28.9439 58.6625 29.0024 58.7433 29.0452 58.832C29.0894 58.9207 29.1115 59.0223 29.1115 59.1367C29.1115 59.2883 29.0816 59.4171 29.0217 59.5229C28.9632 59.6274 28.8833 59.7125 28.7821 59.7783C28.6822 59.8441 28.5667 59.8913 28.4355 59.9199C28.3043 59.9499 28.1659 59.9649 28.0205 59.9649C27.972 59.9649 27.9121 59.9607 27.8408 59.9521C27.7694 59.9449 27.6967 59.9335 27.6225 59.9177C27.5484 59.9034 27.4778 59.8856 27.4108 59.8641C27.3451 59.8412 27.2924 59.8162 27.2524 59.789Z" fill="#262626"/>
<path d="M31.5375 57.1626H30.6518V59.9134H30.2924V57.1626H29.4089V56.8365H31.5375V57.1626Z" fill="#262626"/>
<path d="M34.0961 59.9134H33.6982L33.373 59.0509H32.0723L31.7664 59.9134H31.3663L32.543 56.8365H32.9152L34.0961 59.9134ZM33.2554 58.7269L32.774 57.4158C32.7583 57.3729 32.7426 57.3042 32.727 57.2098H32.7184C32.7041 57.2971 32.6877 57.3658 32.6692 57.4158L32.1921 58.7269H33.2554Z" fill="#262626"/>
<path d="M36.7082 58.6689C36.7082 59.5329 36.3196 59.9649 35.5423 59.9649C34.7978 59.9649 34.4256 59.5494 34.4256 58.7183V56.8365H34.785V58.6947C34.785 59.3255 35.0503 59.6409 35.5808 59.6409C36.0928 59.6409 36.3488 59.3362 36.3488 58.7269V56.8365H36.7082V58.6689Z" fill="#262626"/>
<path d="M39.6755 59.9134H39.2476L38.7342 59.0509C38.6871 58.9708 38.6415 58.9028 38.5972 58.847C38.553 58.7898 38.5074 58.7433 38.4603 58.7075C38.4147 58.6718 38.3648 58.646 38.3106 58.6303C38.2578 58.6131 38.1979 58.6046 38.1309 58.6046H37.8356V59.9134H37.4762V56.8365H38.3919C38.5259 56.8365 38.6493 56.8536 38.762 56.888C38.8761 56.9209 38.9745 56.9717 39.0572 57.0403C39.1413 57.109 39.2069 57.1948 39.254 57.2978C39.3011 57.3994 39.3246 57.5188 39.3246 57.6561C39.3246 57.7634 39.3082 57.8621 39.2754 57.9523C39.244 58.0409 39.1984 58.1203 39.1385 58.1904C39.08 58.2605 39.0087 58.3206 38.9246 58.3707C38.8418 58.4193 38.7484 58.4572 38.6443 58.4844V58.493C38.6956 58.5159 38.7399 58.5423 38.7769 58.5724C38.8154 58.601 38.8518 58.6353 38.886 58.6754C38.9203 58.7154 38.9538 58.7612 38.9866 58.8127C39.0208 58.8628 39.0586 58.9214 39.1 58.9886L39.6755 59.9134ZM37.8356 57.1626V58.2784H38.3234C38.4133 58.2784 38.496 58.2648 38.5716 58.2376C38.6486 58.2105 38.7149 58.1718 38.7705 58.1218C38.8261 58.0703 38.8696 58.008 38.901 57.9351C38.9324 57.8607 38.9481 57.7777 38.9481 57.6862C38.9481 57.5217 38.8946 57.3936 38.7876 57.3021C38.6821 57.2091 38.5288 57.1626 38.3277 57.1626H37.8356Z" fill="#262626"/>
<path d="M42.4737 59.9134H42.0758L41.7506 59.0509H40.4499L40.144 59.9134H39.7439L40.9205 56.8365H41.2928L42.4737 59.9134ZM41.6329 58.7269L41.1516 57.4158C41.1359 57.3729 41.1202 57.3042 41.1045 57.2098H41.096C41.0817 57.2971 41.0653 57.3658 41.0468 57.4158L40.5697 58.7269H41.6329Z" fill="#262626"/>
<path d="M45.4003 59.9134H44.9596L43.3808 57.4609C43.3408 57.3994 43.308 57.335 43.2823 57.2678H43.2695C43.2809 57.3336 43.2866 57.4745 43.2866 57.6905V59.9134H42.9272V56.8365H43.3936L44.9296 59.2504C44.9938 59.3506 45.0352 59.4192 45.0537 59.4564H45.0623C45.048 59.3677 45.0409 59.2168 45.0409 59.0037V56.8365H45.4003V59.9134Z" fill="#262626"/>
<path d="M48.0188 57.1626H47.1331V59.9134H46.7737V57.1626H45.8902V56.8365H48.0188V57.1626Z" fill="#262626"/>
<path d="M50.1282 59.9134H48.5023V56.8365H50.0597V57.1626H48.8617V58.1861H49.9698V58.5101H48.8617V59.5873H50.1282V59.9134Z" fill="#262626"/>
</g>
<defs>
<clipPath id="clip0_2101_1232">
<rect width="58.5366" height="50.2961" fill="white" transform="translate(6.81982 11.0822)"/>
</clipPath>
</defs>
</svg>
